<svg width="16" height="16" viewBox="0 0 16 16" fill="none" xmlns="http://www.w3.org/2000/svg">
  <!-- Background Circle -->
  <circle cx="8" cy="8" r="7.5" fill="#fef3c7" stroke="#16a34a" stroke-width="0.5"/>
  
  <!-- Main F Shape - Simplified for small size -->
  <g transform="translate(4, 3)">
    <!-- Vertical stem of F -->
    <rect x="0" y="0" width="1" height="7" rx="0.5" fill="#16a34a"/>
    
    <!-- Top horizontal bar of F -->
    <rect x="0" y="0" width="5" height="1" rx="0.5" fill="#ea580c"/>
    
    <!-- Middle horizontal bar of F -->
    <rect x="0" y="3" width="3" height="1" rx="0.5" fill="#f59e0b"/>
    
    <!-- Fork - Simplified -->
    <g transform="translate(6, 1)">
      <rect x="0" y="0" width="0.5" height="4" rx="0.25" fill="#6b7280"/>
      <rect x="-0.5" y="0" width="0.5" height="1.5" rx="0.25" fill="#6b7280"/>
      <rect x="0.5" y="0" width="0.5" height="1.5" rx="0.25" fill="#6b7280"/>
    </g>
    
    <!-- Spoon - Simplified -->
    <g transform="translate(7.5, 1.5)">
      <ellipse cx="0.5" cy="0.5" rx="0.5" ry="0.5" fill="#9ca3af"/>
      <rect x="0.25" y="0.5" width="0.5" height="3" rx="0.25" fill="#9ca3af"/>
    </g>
    
    <!-- Chef's Hat - Simplified -->
    <g transform="translate(2, -0.5)">
      <path d="M0 2 Q1 0 2 2 L2 2.5 Q1 3 0 2.5 Z" fill="#ffffff" stroke="#16a34a" stroke-width="0.25"/>
      <ellipse cx="1" cy="2.25" rx="1" ry="0.25" fill="#16a34a"/>
    </g>
    
    <!-- Leaf - Simplified -->
    <g transform="translate(8.5, 2)">
      <path d="M0 1 Q0.5 0 1 1 Q0.5 2 0 1 Z" fill="#22c55e"/>
    </g>
  </g>
  

</svg> 